<?xml version="1.0" encoding="iso-8859-1"?>
<!-- Generator: Adobe Illustrator 16.0.0, SVG Export Plug-In . SVG Version: 6.00 Build 0)  -->
<!DOCTYPE svg PUBLIC "-//W3C//DTD SVG 1.1//EN" "http://www.w3.org/Graphics/SVG/1.1/DTD/svg11.dtd">
<svg xmlns="http://www.w3.org/2000/svg" xmlns:xlink="http://www.w3.org/1999/xlink" version="1.1" id="Capa_1" x="0px" y="0px" width="512px" height="512px" viewBox="0 0 889.371 889.371" style="enable-background:new 0 0 889.371 889.371;" xml:space="preserve">
<g>
	<g>
		<g>
			<path d="M291.009,407.219c97.734,0,175.964-78.979,175.964-176.713c0-6.368,0-188.347,0-188.347     c0-24.384-21.955-42.887-45.986-38.758c-51.854,8.908-169.825,32.443-243.77,47.36c-37.332,7.531-64.172,40.335-64.172,78.419     v101.074C113.045,327.989,193.274,407.219,291.009,407.219z" fill="#FFFFFF"/>
			<path d="M557.475,791.7c15.644-22.248,23.574-48.595,23.574-78.309V517.394c-5.975-38.274-39.081-67.563-79.033-67.563h-70.188     c-13.928,0-26.022,9.585-29.206,23.144L361.214,649.32c-3.818,16.259-12.969,30.139-25.336,39.968     c3.697-19.771,3.576-40.094-0.392-59.864l-31.023-115.369l20.709-45.704c3.932-8.679-2.413-18.519-11.94-18.519h-22.224h-22.224     c-9.527,0-15.872,9.841-11.94,18.519l20.709,45.704L246.53,629.423c-3.968,19.771-4.088,40.094-0.392,59.864     c-12.368-9.829-21.519-23.709-25.336-39.968l-41.408-176.348c-3.183-13.559-15.279-23.144-29.206-23.144H80     c-44.183,0-80,35.817-80,80v309.47c0,16.568,13.431,30,30,30h261.007h84.16c40.649,0,84.62-8.28,121.092-26.761     C528.961,825.97,547.598,805.748,557.475,791.7z" fill="#FFFFFF"/>
			<path d="M883.473,401.075L734.337,251.939c-3.905-3.904-9.024-5.857-14.142-5.857c-5.119,0-10.237,1.953-14.144,5.857     L556.917,401.075c-12.599,12.6-3.676,34.143,14.142,34.143h39.989c0,0,0,138.232,0,278.176c0,40.011-11.962,71.283-29.033,95.562     c-20.618,29.326-48.687,48.435-72.193,60.346c-25.104,12.72-44.995,17.246-44.995,17.246h73.327h36.721h81.313     c95.632,0,173.153-77.522,173.153-173.153c0-139.941,0-278.176,0-278.176h39.989     C887.148,435.218,896.073,413.675,883.473,401.075z" fill="#FFFFFF"/>
		</g>
	</g>
</g>
<g>
</g>
<g>
</g>
<g>
</g>
<g>
</g>
<g>
</g>
<g>
</g>
<g>
</g>
<g>
</g>
<g>
</g>
<g>
</g>
<g>
</g>
<g>
</g>
<g>
</g>
<g>
</g>
<g>
</g>
</svg>
