<?xml version="1.0" encoding="UTF-8" standalone="no"?>
<svg xmlns="http://www.w3.org/2000/svg" viewBox="0 0 400 400">
  <defs>
    <clipPath id="a">
      <circle cx="200" cy="200" r="170" stroke-width="10"/>
    </clipPath>
  </defs>
  <g>
    <circle cx="200" cy="200" r="200" fill="#1f4096"/>
    <circle cx="200" cy="200" r="170" fill="#1f4096" stroke="#fff" stroke-width="10"/>
    <rect width="400" height="40" x="0" y="130" fill="#fff" clip-path="url(#a)"/>
    <path fill="#fff" d="
    m 64 190
    v 30
    h 20
    v 140 
    h 34 
    v -128
    c 0,0 10,-8 16,-8 6,0 16,8 16,8 
    v 152
    h 34
    v -152
    c 0,0 10,-8 16,-8 6,0 16,8 16,8 
    v 152
    h 34 
    v -152
    c 0,0 10,-8 16,-8 6,0 16,8 16,8 
    v 128
    h 34 
    v -140 
    h 20
    v -30
    z
    " clip-path="url(#a)"/>
    
  </g>
</svg>