<?xml version="1.0" encoding="iso-8859-1"?>
<!-- Generator: Adobe Illustrator 16.0.0, SVG Export Plug-In . SVG Version: 6.00 Build 0)  -->
<!DOCTYPE svg PUBLIC "-//W3C//DTD SVG 1.1//EN" "http://www.w3.org/Graphics/SVG/1.1/DTD/svg11.dtd">
<svg xmlns="http://www.w3.org/2000/svg" xmlns:xlink="http://www.w3.org/1999/xlink" version="1.1" id="Capa_1" x="0px" y="0px" width="512px" height="512px" viewBox="0 0 337.312 337.312" style="enable-background:new 0 0 337.312 337.312;" xml:space="preserve">
<g>
	<g>
		<path d="M51.577,164.282c-2.967,0-5.375,2.404-5.375,5.375v104.017c0,2.966,2.409,5.376,5.375,5.376h26.005    c2.968,0,5.375-2.41,5.375-5.376V169.657c0-2.971-2.406-5.375-5.375-5.375H51.577z" fill="#FFFFFF"/>
		<path d="M155.595,164.282c-2.968,0-5.375,2.404-5.375,5.375v104.017c0,2.966,2.406,5.376,5.375,5.376h26.005    c2.971,0,5.376-2.41,5.376-5.376V169.657c0-2.971-2.405-5.375-5.376-5.375H155.595z" fill="#FFFFFF"/>
		<path d="M259.628,164.282c-2.977,0-5.376,2.404-5.376,5.375v104.017c0,2.966,2.399,5.376,5.376,5.376h26.006    c2.966,0,5.375-2.41,5.375-5.376V169.657c0-2.971-2.409-5.375-5.375-5.375H259.628z" fill="#FFFFFF"/>
		<path d="M303.991,153.531v-13.002c0-2.972-2.41-5.375-5.376-5.375H38.584c-2.966,0-5.375,2.403-5.375,5.375v13.002    c0,2.966,2.409,5.375,5.375,5.375H298.62C301.586,158.906,303.991,156.497,303.991,153.531z" fill="#FFFFFF"/>
		<path d="M310.543,106.023H26.657c-2.968,0-5.375,2.405-5.375,5.376v13.002c0,2.966,2.407,5.375,5.375,5.375h283.886    c2.966,0,5.375-2.41,5.375-5.375v-12.998C315.918,108.428,313.509,106.023,310.543,106.023z" fill="#FFFFFF"/>
		<path d="M323.397,84.874L171.2,0.673c-1.617-0.897-3.59-0.897-5.208,0L13.224,85.195c-2.145,1.186-3.215,3.674-2.604,6.047    c0.613,2.367,2.753,4.032,5.204,4.032h305.552c0.047,0,0.078-0.005,0.111,0c2.971,0,5.374-2.41,5.374-5.375    C326.857,87.599,325.42,85.646,323.397,84.874z M168.598,76.528c-11.858,0-21.501-9.644-21.501-21.501    c0-11.859,9.644-21.502,21.501-21.502c11.86,0,21.502,9.644,21.502,21.502C190.101,66.884,180.458,76.528,168.598,76.528z" fill="#FFFFFF"/>
		<circle cx="168.598" cy="55.026" r="10.75" fill="#FFFFFF"/>
		<path d="M33.203,302.809c0,2.966,2.409,5.376,5.376,5.376H298.61c2.971,0,5.375-2.41,5.375-5.376v-13.003    c0-2.971-2.404-5.375-5.375-5.375H38.579c-2.967,0-5.376,2.404-5.376,5.375V302.809z" fill="#FFFFFF"/>
		<path d="M310.537,313.56H26.657c-2.968,0-5.375,2.41-5.375,5.376v13.003c0,2.966,2.407,5.374,5.375,5.374h283.886    c2.966,0,5.375-2.408,5.375-5.374v-13.003C315.913,315.97,313.503,313.56,310.537,313.56z" fill="#FFFFFF"/>
	</g>
</g>
<g>
</g>
<g>
</g>
<g>
</g>
<g>
</g>
<g>
</g>
<g>
</g>
<g>
</g>
<g>
</g>
<g>
</g>
<g>
</g>
<g>
</g>
<g>
</g>
<g>
</g>
<g>
</g>
<g>
</g>
</svg>
